<?xml version="1.0" encoding="UTF-8" standalone="no"?>
<!-- Created with Inkscape (http://www.inkscape.org/) -->

<svg
   xmlns:dc="http://purl.org/dc/elements/1.1/"
   xmlns:cc="http://creativecommons.org/ns#"
   xmlns:rdf="http://www.w3.org/1999/02/22-rdf-syntax-ns#"
   xmlns:svg="http://www.w3.org/2000/svg"
   xmlns="http://www.w3.org/2000/svg"
   xmlns:xlink="http://www.w3.org/1999/xlink"
   xmlns:sodipodi="http://sodipodi.sourceforge.net/DTD/sodipodi-0.dtd"
   xmlns:inkscape="http://www.inkscape.org/namespaces/inkscape"
   sodipodi:docname="sprites.svg"
   inkscape:version="0.48.3.1 r9886"
   version="1.1"
   id="svg2"
   height="1052.3622047"
   width="744.09448819">
  <defs
     id="defs4">
    <inkscape:path-effect
       fuse_tolerance="0"
       vertical_pattern="false"
       prop_units="false"
       tang_offset="0"
       normal_offset="-70"
       spacing="119.5"
       scale_y_rel="false"
       prop_scale="0.47"
       copytype="repeated_stretched"
       pattern="m -109.72299,5.1048516 2.45892,0 c 0.0426,0 0.077,0.24639 0.077,0.55243 l 0,47.3326544 c 0,0.30604 -0.0343,0.55242 -0.077,0.55242 l -2.45892,0 c -0.0426,0 -0.077,-0.24638 -0.077,-0.55242 l 0,-47.3326544 c 0,-0.30604 0.0343,-0.55243 0.077,-0.55243 z"
       is_visible="true"
       id="path-effect3976"
       effect="skeletal" />
    <inkscape:path-effect
       effect="skeletal"
       id="path-effect3963"
       is_visible="true"
       pattern="m 4.077,4 2.45892,0 c 0.0426,0 0.077,0.24639 0.077,0.55243 l 0,47.33265 c 0,0.30604 -0.0343,0.55242 -0.077,0.55242 l -2.45892,0 C 4.0344,52.4375 4,52.19112 4,51.88508 L 4,4.55243 C 4,4.24639 4.0343,4 4.077,4 z"
       copytype="repeated_stretched"
       prop_scale="0.47"
       scale_y_rel="false"
       spacing="119.5"
       normal_offset="-70"
       tang_offset="0"
       prop_units="false"
       vertical_pattern="false"
       fuse_tolerance="0" />
    <inkscape:path-effect
       effect="skeletal"
       id="path-effect3910"
       is_visible="true"
       pattern="M 1.55243,1 19.19757,1 C 19.50362,1 19.75,1.24639 19.75,1.55243 l 0,47.33265 c 0,0.30604 -0.24638,0.55242 -0.55243,0.55242 l -17.64514,0 C 1.24638,49.4375 1,49.19112 1,48.88508 L 1,1.55243 C 1,1.24639 1.24638,1 1.55243,1 z"
       copytype="repeated"
       prop_scale="1"
       scale_y_rel="false"
       spacing="10"
       normal_offset="0"
       tang_offset="0"
       prop_units="false"
       vertical_pattern="false"
       fuse_tolerance="0" />
    <inkscape:path-effect
       effect="skeletal"
       id="path-effect3850"
       is_visible="true"
       pattern="m 0.55243,0 c 0.30604,0 0.55243,0.24638 0.55243,0.55242 l 0,12.98204 c 0,0.30605 -0.24639,0.55243 -0.55243,0.55243 C 0.24638,14.08689 0,13.84051 0,13.53446 L 0,0.55242 C 0,0.24638 0.24638,0 0.55243,0 z"
       copytype="repeated"
       prop_scale="1"
       scale_y_rel="false"
       spacing="15.2"
       normal_offset="5"
       tang_offset="0"
       prop_units="false"
       vertical_pattern="false"
       fuse_tolerance="0" />
    <inkscape:perspective
       sodipodi:type="inkscape:persp3d"
       inkscape:vp_x="168.15078 : 345.5467 : 1"
       inkscape:vp_y="0 : 947.47538 : 0"
       inkscape:vp_z="1976.2864 : 303.12029 : 1"
       inkscape:persp3d-origin="430.77172 : 179.36549 : 1"
       id="perspective5369" />
    <linearGradient
       id="linearGradient5296">
      <stop
         style="stop-color:#6d0000;stop-opacity:1;"
         offset="0"
         id="stop5298" />
      <stop
         style="stop-color:#340000;stop-opacity:1;"
         offset="1"
         id="stop5300" />
    </linearGradient>
    <linearGradient
       id="linearGradient5262">
      <stop
         style="stop-color:#ffffff;stop-opacity:0.45299146;"
         offset="0"
         id="stop5264" />
      <stop
         style="stop-color:#ffffff;stop-opacity:0;"
         offset="1"
         id="stop5266" />
    </linearGradient>
    <linearGradient
       id="linearGradient5252">
      <stop
         style="stop-color:#000000;stop-opacity:1;"
         offset="0"
         id="stop5254" />
      <stop
         style="stop-color:#e0e0e0;stop-opacity:1;"
         offset="1"
         id="stop5256" />
    </linearGradient>
    <linearGradient
       inkscape:collect="always"
       xlink:href="#linearGradient5296"
       id="linearGradient5338"
       gradientUnits="userSpaceOnUse"
       x1="202.94408"
       y1="351.94403"
       x2="202.94408"
       y2="438.88101" />
    <linearGradient
       inkscape:collect="always"
       xlink:href="#linearGradient5252"
       id="linearGradient5340"
       gradientUnits="userSpaceOnUse"
       x1="227.85713"
       y1="447.00504"
       x2="163.57144"
       y2="311.29074" />
    <linearGradient
       inkscape:collect="always"
       xlink:href="#linearGradient5262"
       id="linearGradient5342"
       gradientUnits="userSpaceOnUse"
       x1="149.28572"
       y1="350.57648"
       x2="149.28572"
       y2="429.19937" />
    <linearGradient
       inkscape:collect="always"
       xlink:href="#linearGradient5252"
       id="linearGradient5344"
       gradientUnits="userSpaceOnUse"
       x1="227.85713"
       y1="447.00504"
       x2="163.57144"
       y2="311.29074" />
    <linearGradient
       inkscape:collect="always"
       xlink:href="#linearGradient5262"
       id="linearGradient5346"
       gradientUnits="userSpaceOnUse"
       x1="149.28572"
       y1="350.57648"
       x2="149.28572"
       y2="429.19937" />
  </defs>
  <sodipodi:namedview
     id="base"
     pagecolor="#ffffff"
     bordercolor="#666666"
     borderopacity="1.0"
     inkscape:pageopacity="0.0"
     inkscape:pageshadow="2"
     inkscape:zoom="0.90509668"
     inkscape:cx="585.46111"
     inkscape:cy="424.10351"
     inkscape:document-units="px"
     inkscape:current-layer="layer1"
     showgrid="false"
     inkscape:window-width="1600"
     inkscape:window-height="850"
     inkscape:window-x="0"
     inkscape:window-y="25"
     inkscape:window-maximized="1"
     showguides="true"
     inkscape:guide-bbox="true" />
  <metadata
     id="metadata7">
    <rdf:RDF>
      <cc:Work
         rdf:about="">
        <dc:format>image/svg+xml</dc:format>
        <dc:type
           rdf:resource="http://purl.org/dc/dcmitype/StillImage" />
        <dc:title></dc:title>
      </cc:Work>
    </rdf:RDF>
  </metadata>
  <g
     inkscape:label="Layer 1"
     inkscape:groupmode="layer"
     id="layer1">
    <rect
       style="stroke:none"
       id="rect3995"
       width="288.02701"
       height="242.02699"
       x="599.16962"
       y="304.86404" />
    <g
       id="g5239"
       inkscape:export-filename="/home/shrapnel/code/sequence-initiated/web/images/switches.png"
       inkscape:export-xdpi="41.849998"
       inkscape:export-ydpi="41.849998"
       transform="translate(-67.186229,0)">
      <g
         transform="translate(119.94352,68.25438)"
         id="g5208">
        <rect
           style="fill:none;stroke:#000000;stroke-width:8;stroke-linecap:butt;stroke-linejoin:miter;stroke-miterlimit:4;stroke-opacity:1;stroke-dasharray:none"
           id="rect2985"
           width="111.78622"
           height="206.74055"
           x="32.962257"
           y="0.82670593" />
        <g
           id="g5201"
           transform="translate(-2.2928963,0)">
          <rect
             y="104.13593"
             x="50.781433"
             height="86.984344"
             width="80.733658"
             id="rect3755"
             style="fill:none;stroke:#000000;stroke-width:8;stroke-miterlimit:4;stroke-opacity:1;stroke-dasharray:none" />
          <rect
             y="102.07643"
             x="50.477043"
             height="17.142857"
             width="81.342438"
             id="rect5193"
             style="fill:#000000;fill-opacity:1;stroke:#000000;stroke-width:0.95068651;stroke-miterlimit:4;stroke-opacity:1;stroke-dasharray:none" />
          <rect
             style="fill:#000000;fill-opacity:1;stroke:#000000;stroke-width:0.95068651;stroke-miterlimit:4;stroke-opacity:1;stroke-dasharray:none"
             id="rect5195"
             width="81.342438"
             height="17.142857"
             x="50.477043"
             y="126.74312" />
          <rect
             y="151.40981"
             x="50.477043"
             height="17.142857"
             width="81.342438"
             id="rect5197"
             style="fill:#000000;fill-opacity:1;stroke:#000000;stroke-width:0.95068651;stroke-miterlimit:4;stroke-opacity:1;stroke-dasharray:none" />
          <rect
             style="fill:#000000;fill-opacity:1;stroke:#000000;stroke-width:0.95068651;stroke-miterlimit:4;stroke-opacity:1;stroke-dasharray:none"
             id="rect5199"
             width="81.342438"
             height="17.142857"
             x="50.477043"
             y="176.07649" />
        </g>
      </g>
      <rect
         y="68.927177"
         x="101.27489"
         height="207.04837"
         width="215.048"
         id="rect5217"
         style="fill:none;stroke:none" />
    </g>
    <g
       id="g5330"
       transform="matrix(1,0,0,0.97872846,-152,7.6792901)"
       inkscape:export-filename="/home/shrapnel/code/sequence-initiated/web/images/lights.png"
       inkscape:export-xdpi="41.849998"
       inkscape:export-ydpi="41.849998">
      <g
         transform="translate(49.00954,0)"
         id="g5312">
        <path
           sodipodi:type="arc"
           style="fill:url(#linearGradient5338);fill-opacity:1;stroke:url(#linearGradient5340);stroke-width:16.92923927;stroke-miterlimit:4;stroke-dasharray:none"
           id="path5250"
           sodipodi:cx="201.78572"
           sodipodi:cy="387.00504"
           sodipodi:rx="69.64286"
           sodipodi:ry="53.214287"
           d="m 271.42858,387.00504 c 0,29.38943 -31.18017,53.21428 -69.64286,53.21428 -38.46269,0 -69.64286,-23.82485 -69.64286,-53.21428 0,-29.38944 31.18017,-53.21429 69.64286,-53.21429 38.46269,0 69.64286,23.82485 69.64286,53.21429 z"
           transform="matrix(0.41307448,0,0,0.54060085,128.4829,119.00946)" />
        <path
           sodipodi:type="arc"
           style="fill:url(#linearGradient5342);fill-opacity:1;stroke:none"
           id="path5260"
           sodipodi:cx="150.35715"
           sodipodi:cy="393.43362"
           sodipodi:rx="50.357143"
           sodipodi:ry="50.357143"
           d="m 200.71429,393.43362 c 0,27.81149 -22.54566,50.35715 -50.35714,50.35715 -27.81149,0 -50.35715,-22.54566 -50.35715,-50.35715 0,-27.81148 22.54566,-50.35714 50.35715,-50.35714 27.81148,0 50.35714,22.54566 50.35714,50.35714 z"
           transform="matrix(0.37458983,0,0,0.37458983,155.51317,180.84848)" />
      </g>
      <g
         transform="translate(46.972377,0)"
         id="g5316">
        <path
           transform="matrix(0.41307448,0,0,0.54060085,196.05544,118.69664)"
           d="m 271.42858,387.00504 c 0,29.38943 -31.18017,53.21428 -69.64286,53.21428 -38.46269,0 -69.64286,-23.82485 -69.64286,-53.21428 0,-29.38944 31.18017,-53.21429 69.64286,-53.21429 38.46269,0 69.64286,23.82485 69.64286,53.21429 z"
           sodipodi:ry="53.214287"
           sodipodi:rx="69.64286"
           sodipodi:cy="387.00504"
           sodipodi:cx="201.78572"
           id="path5276"
           style="fill:#0dff2b;fill-opacity:1;stroke:url(#linearGradient5344);stroke-width:16.92923927;stroke-miterlimit:4;stroke-dasharray:none"
           sodipodi:type="arc" />
        <path
           transform="matrix(0.37458983,0,0,0.37458983,223.08571,180.53566)"
           d="m 200.71429,393.43362 c 0,27.81149 -22.54566,50.35715 -50.35714,50.35715 -27.81149,0 -50.35715,-22.54566 -50.35715,-50.35715 0,-27.81148 22.54566,-50.35714 50.35715,-50.35714 27.81148,0 50.35714,22.54566 50.35714,50.35714 z"
           sodipodi:ry="50.357143"
           sodipodi:rx="50.357143"
           sodipodi:cy="393.43362"
           sodipodi:cx="150.35715"
           id="path5278"
           style="fill:url(#linearGradient5346);fill-opacity:1;stroke:none"
           sodipodi:type="arc" />
      </g>
    </g>
    <g
       id="g4082"
       inkscape:export-filename="/home/shrapnel/code/sequence-initiated/web/images/pushbutton_large.png"
       inkscape:export-xdpi="41.919998"
       inkscape:export-ydpi="41.919998">
      <g
         inkscape:export-ydpi="41.919998"
         inkscape:export-xdpi="41.919998"
         inkscape:export-filename="/home/shrapnel/code/sequence-initiated/web/images/pushbutton_large.png"
         id="g4043">
        <rect
           style="fill:none;stroke:none;fill-opacity:0.28125000000000000"
           id="rect3223"
           width="322.02701"
           height="322.02701"
           x="277.14261"
           y="264.86404" />
        <g
           id="g5390"
           transform="matrix(0.89441942,0,0,0.8941554,29.260874,22.019118)">
          <path
             sodipodi:nodetypes="ccccc"
             inkscape:connector-curvature="0"
             id="rect5367"
             d="m 288.32328,316.3332 285.21758,0 0,244.95281 -285.21758,0 z"
             style="fill:#a50000;fill-opacity:1;stroke:none" />
          <path
             sodipodi:nodetypes="ccccc"
             inkscape:connector-curvature="0"
             id="rect5385"
             d="m 288.32304,561.12626 285.17268,0 25.25382,25.71428 -285.17268,0 z"
             style="fill:#650000;fill-opacity:1;stroke:none" />
          <path
             style="fill:#4d0000;fill-opacity:1;stroke:none"
             d="m 599.16938,342.42933 -0.37881,244.5737 -25.33547,-25.72415 0,-244.95251 z"
             id="path5388"
             inkscape:connector-curvature="0"
             sodipodi:nodetypes="ccccc" />
        </g>
      </g>
      <g
         inkscape:export-ydpi="41.919998"
         inkscape:export-xdpi="41.919998"
         inkscape:export-filename="/home/shrapnel/code/sequence-initiated/web/images/pushbutton_large.png"
         id="g4050">
        <rect
           y="264.86404"
           x="599.16962"
           height="322.02701"
           width="322.02701"
           id="rect3993"
           style="fill:none;stroke:none;fill-opacity:0.28125000000000000" />
        <g
           transform="matrix(0.89441942,0,0,0.8941554,362.22855,32.935289)"
           id="g5395">
          <path
             sodipodi:nodetypes="ccccc"
             inkscape:connector-curvature="0"
             id="rect5397"
             d="m 288.32273,316.44486 285.21758,0 0,244.95281 -285.21758,0 z"
             style="fill:#a50000;fill-opacity:1;stroke:none" />
          <path
             style="fill:#650000;fill-opacity:1;stroke:none"
             d="m 288.32304,561.12626 285.17268,0 13.14997,13.55643 -285.17268,0 z"
             id="path5399"
             inkscape:connector-curvature="0"
             sodipodi:nodetypes="ccccc" />
          <path
             sodipodi:nodetypes="ccccc"
             inkscape:connector-curvature="0"
             id="path5401"
             d="m 586.93725,330.22097 -0.37881,244.5737 -13.10334,-13.5158 0,-244.95251 z"
             style="fill:#4d0000;fill-opacity:1;stroke:none" />
        </g>
      </g>
      <g
         inkscape:export-ydpi="41.919998"
         inkscape:export-xdpi="41.919998"
         inkscape:export-filename="/home/shrapnel/code/sequence-initiated/web/images/pushbutton_large.png"
         id="g4063">
        <g
           id="g5415"
           transform="matrix(0.99689538,0,0,0.99970533,645.91481,0.17294159)"
           inkscape:export-filename="/home/shrapnel/code/sequence-initiated/web/images/pushbutton_large.png"
           inkscape:export-xdpi="41.919998"
           inkscape:export-ydpi="41.919998">
          <rect
             inkscape:export-ydpi="41.849998"
             inkscape:export-xdpi="41.849998"
             inkscape:export-filename="/home/shrapnel/code/sequence-initiated/web/images/pushbutton_large.png"
             y="264.77594"
             x="277.14285"
             height="296.39801"
             width="296.39801"
             id="rect5417"
             style="fill:#787cff;fill-opacity:0.765625;stroke:none" />
          <path
             sodipodi:nodetypes="ccccc"
             inkscape:connector-curvature="0"
             id="path5419"
             d="m 277.14261,561.12626 296.35311,0 25.25382,25.71428 -296.35311,0 z"
             style="fill:#0005a5;fill-opacity:0.28125;stroke:none" />
          <path
             style="fill:#0005a5;fill-opacity:0.28125;stroke:none"
             d="m 599.16938,290.87214 -0.37881,296.0189 -25.33547,-25.72415 0,-296.39771 z"
             id="path5421"
             inkscape:connector-curvature="0"
             sodipodi:nodetypes="ccccc" />
          <path
             style="fill:#0005a5;fill-opacity:0.28125;stroke:none"
             d="m 277.14261,553.1239 296.35311,0 25.25382,25.71428 -296.35311,0 z"
             id="path3997"
             inkscape:connector-curvature="0"
             sodipodi:nodetypes="ccccc" />
          <path
             sodipodi:nodetypes="ccccc"
             inkscape:connector-curvature="0"
             id="path3999"
             d="m 277.14261,273.0413 296.35311,0 25.25382,25.71428 -296.35311,0 z"
             style="fill:#0005a5;fill-opacity:0.28125;stroke:none" />
          <path
             sodipodi:nodetypes="ccccc"
             inkscape:connector-curvature="0"
             id="path4001"
             d="m 591.16938,298.8745 -0.37881,280.01418 -25.33547,-25.72415 0,-280.39299 z"
             style="fill:#0005a5;fill-opacity:0.28125;stroke:none" />
          <rect
             style="fill:#0005a5;fill-opacity:0.28125;stroke:none"
             id="rect4003"
             width="296.39801"
             height="8.2324247"
             x="277.14285"
             y="264.77533"
             inkscape:export-filename="/home/shrapnel/code/sequence-initiated/web/images/pushbutton_large.png"
             inkscape:export-xdpi="41.849998"
             inkscape:export-ydpi="41.849998" />
          <rect
             inkscape:export-ydpi="41.849998"
             inkscape:export-xdpi="41.849998"
             inkscape:export-filename="/home/shrapnel/code/sequence-initiated/web/images/pushbutton_large.png"
             y="552.95917"
             x="277.14285"
             height="8.2324247"
             width="296.39801"
             id="rect4005"
             style="fill:#0005a5;fill-opacity:0.28125;stroke:none" />
          <rect
             style="fill:#0005a5;fill-opacity:0.28125;stroke:none"
             id="rect4007"
             width="280.05957"
             height="8.1083126"
             x="272.98822"
             y="-573.52118"
             inkscape:export-filename="/home/shrapnel/code/sequence-initiated/web/images/pushbutton_large.png"
             inkscape:export-xdpi="41.849998"
             inkscape:export-ydpi="41.849998"
             transform="matrix(0,1,-1,0,0,0)" />
          <rect
             transform="matrix(0,1,-1,0,0,0)"
             inkscape:export-ydpi="41.849998"
             inkscape:export-xdpi="41.849998"
             inkscape:export-filename="/home/shrapnel/code/sequence-initiated/web/images/pushbutton_large.png"
             y="-599.09094"
             x="298.73755"
             height="8.1083126"
             width="280.05957"
             id="rect4009"
             style="fill:#0005a5;fill-opacity:0.28125;stroke:none" />
          <rect
             style="fill:#0005a5;fill-opacity:0.28125;stroke:none"
             id="rect4011"
             width="296.39801"
             height="8.2324247"
             x="302.29108"
             y="578.72369"
             inkscape:export-filename="/home/shrapnel/code/sequence-initiated/web/images/pushbutton_large.png"
             inkscape:export-xdpi="41.849998"
             inkscape:export-ydpi="41.849998" />
          <rect
             inkscape:export-ydpi="41.849998"
             inkscape:export-xdpi="41.849998"
             inkscape:export-filename="/home/shrapnel/code/sequence-initiated/web/images/pushbutton_large.png"
             y="290.29599"
             x="302.1694"
             height="8.2324247"
             width="296.39801"
             id="rect4013"
             style="fill:#0005a5;fill-opacity:0.28125;stroke:none" />
          <path
             style="fill:#0005a5;fill-opacity:0.28125;stroke:none"
             d="m 277.14261,264.7949 296.35311,0 25.25382,25.71428 -296.35311,0 z"
             id="path4015"
             inkscape:connector-curvature="0"
             sodipodi:nodetypes="ccccc" />
        </g>
        <text
           transform="matrix(0.82242387,-0.49064524,0.41730633,0.96695957,0,0)"
           xml:space="preserve"
           style="font-size:60.26252365px;font-style:normal;font-variant:normal;font-weight:bold;font-stretch:normal;line-height:125%;letter-spacing:0px;word-spacing:0px;fill:#d8d7ff;fill-opacity:0.68229167;stroke:none;font-family:Black Ops One;-inkscape-font-specification:Black Ops One Bold"
           x="854.80255"
           y="838.25494"
           id="text4057"
           sodipodi:linespacing="125%"><tspan
             sodipodi:role="line"
             id="tspan4059"
             x="854.80255"
             y="838.25494"
             style="font-size:60.26252365px;font-style:normal;font-variant:normal;font-weight:bold;font-stretch:normal;text-align:center;text-anchor:middle;fill:#d8d7ff;fill-opacity:0.68229167;font-family:Black Ops One;-inkscape-font-specification:Black Ops One Bold">SAFETY</tspan><tspan
             sodipodi:role="line"
             x="854.80255"
             y="913.58307"
             id="tspan4061"
             style="font-size:60.26252365px;font-style:normal;font-variant:normal;font-weight:bold;font-stretch:normal;text-align:center;text-anchor:middle;fill:#d8d7ff;fill-opacity:0.68229167;font-family:Black Ops One;-inkscape-font-specification:Black Ops One Bold">LOCKOUT</tspan></text>
      </g>
    </g>
    <text
       xml:space="preserve"
       style="font-size:40px;font-style:normal;font-weight:normal;line-height:125%;letter-spacing:0px;word-spacing:0px;fill:#000000;fill-opacity:1;stroke:none;font-family:Sans"
       x="923.75098"
       y="200.19847"
       id="text3054"
       sodipodi:linespacing="125%"><tspan
         sodipodi:role="line"
         id="tspan3056"
         x="923.75098"
         y="200.19847">Font: Black Ops One</tspan></text>
    <g
       id="g3870"
       transform="matrix(0.99663995,0,0,0.99663995,-608.21228,-595.26622)"
       inkscape:export-filename="/home/shrapnel/code/sequence-initiated/web/images/rotary_large.png"
       inkscape:export-xdpi="41.919998"
       inkscape:export-ydpi="41.919998">
      <path
         transform="matrix(1.8237703,0,0,1.8237703,-93.303737,-497.50931)"
         d="m 334.53276,715.07605 c 0,60.82546 -49.30878,110.13425 -110.13425,110.13425 -60.82546,0 -110.13424,-49.30879 -110.13424,-110.13425 0,-60.82547 49.30878,-110.13425 110.13424,-110.13425 60.82547,0 110.13425,49.30878 110.13425,110.13425 z"
         sodipodi:ry="110.13425"
         sodipodi:rx="110.13425"
         sodipodi:cy="715.07605"
         sodipodi:cx="224.39851"
         id="path3866"
         style="fill:none;stroke:#000000;stroke-width:4.40130615;stroke-miterlimit:4;stroke-opacity:1;stroke-dasharray:none"
         sodipodi:type="arc" />
      <rect
         ry="17.208475"
         y="881.65411"
         x="298.73914"
         height="100.4975"
         width="34.41695"
         id="rect3868"
         style="fill:#000000;fill-opacity:1;stroke:#000000;stroke-width:8;stroke-miterlimit:4;stroke-opacity:1;stroke-dasharray:none" />
    </g>
    <g
       id="g3898"
       transform="translate(-80.25,-576.75)"
       inkscape:export-filename="/home/shrapnel/code/sequence-initiated/web/images/dial_medium.png"
       inkscape:export-xdpi="41.919998"
       inkscape:export-ydpi="41.919998">
      <g
         transform="translate(-127.3518,0)"
         id="g3887">
        <path
           transform="matrix(0,-1,1,0,120.56752,1305.671)"
           d="m 688.33905,713.6994 a 108.75757,108.75757 0 1 1 -217.51514,0 108.75757,108.75757 0 1 1 217.51514,0 z"
           sodipodi:ry="108.75757"
           sodipodi:rx="108.75757"
           sodipodi:cy="713.6994"
           sodipodi:cx="579.58148"
           id="path3829"
           style="fill:#ac0000;fill-opacity:1;stroke:#000000;stroke-width:8;stroke-miterlimit:4;stroke-opacity:1;stroke-dasharray:none"
           sodipodi:type="arc" />
        <path
           sodipodi:type="arc"
           style="fill:#0dff2b;fill-opacity:1;stroke:none"
           id="path3831"
           sodipodi:cx="579.58148"
           sodipodi:cy="713.6994"
           sodipodi:rx="104.89057"
           sodipodi:ry="104.89057"
           d="m 670.41938,661.25411 a 104.89057,104.89057 0 0 1 0,104.89058 l -90.8379,-52.44529 z"
           transform="matrix(0,-1,1,0,120.56752,1305.671)"
           sodipodi:start="5.7595865"
           sodipodi:end="6.8067841" />
        <path
           inkscape:connector-curvature="0"
           transform="matrix(0,-1,1,0,120.56752,1305.671)"
           style="fill:none;stroke:#000000;stroke-opacity:1"
           d="m 690.38083,714.26267 c -0.002,0.31202 -0.25098,0.56057 -0.55695,0.55732 l -12.97924,-0.13793 c -0.30598,-0.003 -0.55025,-0.22372 -0.54935,-0.49429 9.1e-4,-0.27058 0.24669,-0.48837 0.55274,-0.48837 l 12.98205,0 c 0.30604,0 0.5525,0.25124 0.55075,0.56327 z m -1.36932,16.53369 c -0.0492,0.30761 -0.33312,0.51489 -0.63479,0.46503 l -12.7966,-2.11487 c -0.30167,-0.0499 -0.50868,-0.3059 -0.46568,-0.57429 0.043,-0.26839 0.3196,-0.44695 0.62177,-0.40017 l 12.81733,1.98438 c 0.30216,0.0468 0.5072,0.33231 0.45797,0.63992 z m -3.82975,16.13212 c -0.0941,0.29695 -0.40559,0.46002 -0.69671,0.36614 l -12.34931,-3.9822 c -0.29113,-0.0939 -0.45792,-0.37839 -0.37543,-0.63835 0.0825,-0.25996 0.38284,-0.39636 0.67488,-0.30538 l 12.38798,3.85913 c 0.29203,0.091 0.4527,0.4037 0.35859,0.70066 z m -6.15252,15.39815 c -0.13642,0.28005 -0.46836,0.39597 -0.7427,0.26066 l -11.63736,-5.73991 c -0.27435,-0.13532 -0.39799,-0.44119 -0.27858,-0.68648 0.11941,-0.24531 0.43638,-0.33658 0.71206,-0.20399 l 11.69397,5.62426 c 0.27567,0.13258 0.38904,0.46539 0.25261,0.74546 z m -8.33759,14.33179 c -0.17614,0.25692 -0.52145,0.32275 -0.77277,0.14858 l -10.66077,-7.38799 c -0.25133,-0.17417 -0.32887,-0.4943 -0.17514,-0.71869 0.15375,-0.2244 0.48024,-0.26762 0.73333,-0.096 l 10.73531,7.27977 c 0.25307,0.17161 0.31619,0.51741 0.14004,0.77433 z m -10.385,12.93306 c -0.21327,0.22755 -0.56485,0.24034 -0.7869,0.0299 l -9.41954,-8.92645 c -0.22207,-0.21044 -0.25057,-0.53773 -0.0651,-0.73498 0.18549,-0.19725 0.51441,-0.18948 0.73866,0.0186 l 9.512,8.82566 c 0.22424,0.20806 0.23416,0.55973 0.0209,0.78728 z m -12.25833,11.18663 c -0.24559,0.19173 -0.59467,0.15015 -0.78159,-0.0918 l -7.92889,-10.26419 c -0.18692,-0.24198 -0.16431,-0.57034 0.0497,-0.73745 0.21399,-0.16711 0.53792,-0.10937 0.72732,0.13067 l 8.03405,10.18228 c 0.1894,0.24004 0.14504,0.58878 -0.10056,0.78051 z m -13.79672,9.19639 c -0.27129,0.15307 -0.61031,0.06 -0.75926,-0.20711 l -6.31847,-11.3317 c -0.14896,-0.26714 -0.0771,-0.5889 0.16037,-0.72274 0.23746,-0.13384 0.55005,-0.0288 0.70166,0.23683 l 6.43106,11.26772 c 0.15161,0.26563 0.0559,0.60392 -0.21536,0.757 z m -14.99978,7.06793 c -0.29076,0.11183 -0.61261,-0.0297 -0.72102,-0.3158 l -4.59842,-12.13455 c -0.10841,-0.28608 0.01,-0.59412 0.26448,-0.69211 0.25469,-0.098 0.54883,0.0514 0.66007,0.33639 l 4.71844,12.08852 c 0.11123,0.28497 -0.0328,0.60572 -0.32355,0.71755 z m -15.87047,4.80181 c -0.30398,0.068 -0.60156,-0.11914 -0.66683,-0.41789 l -2.76876,-12.67277 c -0.0653,-0.29876 0.0963,-0.586 0.36198,-0.64555 0.26568,-0.0596 0.53429,0.13127 0.60256,0.42936 l 2.89621,12.64466 c 0.0683,0.29809 -0.12117,0.59419 -0.42516,0.66219 z m -16.40876,2.398 c -0.31096,0.0216 -0.57717,-0.2082 -0.59673,-0.51339 l -0.82947,-12.94634 c -0.0195,-0.3052 0.18247,-0.56453 0.45289,-0.58306 0.27043,-0.0185 0.50639,0.21077 0.52913,0.51574 l 0.96434,12.93615 c 0.0227,0.30496 -0.20919,0.56931 -0.52016,0.5909 z m -16.59683,-0.14131 c -0.3105,-0.0268 -0.53792,-0.29498 -0.51007,-0.59949 l 1.18144,-12.91712 c 0.0279,-0.30452 0.26775,-0.52974 0.53796,-0.50659 0.27021,0.0231 0.46793,0.28588 0.44324,0.59069 l -1.04738,12.92926 c -0.0247,0.3048 -0.29468,0.53005 -0.60519,0.50325 z m -16.36598,-2.6682 c -0.30283,-0.0729 -0.48745,-0.37208 -0.41434,-0.66904 l 3.10129,-12.59661 c 0.0731,-0.29696 0.34487,-0.48339 0.60964,-0.4195 0.26478,0.0639 0.42174,0.35376 0.35162,0.65143 l -2.97466,12.62669 c -0.0701,0.29767 -0.37071,0.47996 -0.67355,0.40703 z m -15.79125,-5.05692 c -0.28893,-0.11647 -0.4278,-0.43949 -0.31202,-0.72265 l 4.91151,-12.01146 c 0.11579,-0.28317 0.41232,-0.42785 0.66541,-0.32581 0.25311,0.10205 0.36637,0.41194 0.25339,0.69624 l -4.79231,12.05947 c -0.11297,0.2843 -0.43704,0.42069 -0.72598,0.30421 z m -14.88414,-7.30795 c -0.26878,-0.15744 -0.35897,-0.49723 -0.20309,-0.76035 l 6.61211,-11.16166 c 0.15588,-0.26314 0.47006,-0.36313 0.70525,-0.22552 0.23519,0.13762 0.3018,0.46044 0.14856,0.72513 l -6.50034,11.2276 c -0.15324,0.26468 -0.4937,0.35224 -0.76249,0.1948 z m -13.64463,-9.42132 c -0.2424,-0.19581 -0.28096,-0.54526 -0.0876,-0.78212 l 8.20309,-10.04721 c 0.19338,-0.23686 0.51813,-0.28922 0.72916,-0.11862 0.21104,0.1706 0.22806,0.49924 0.0371,0.73808 l -8.09875,10.13109 c -0.19092,0.23883 -0.54066,0.2746 -0.78306,0.0788 z m -12.06743,-11.39418 c -0.20933,-0.23106 -0.19345,-0.58245 0.0343,-0.78664 l 9.659,-8.66157 c 0.22771,-0.20419 0.55672,-0.20623 0.73885,-0.006 0.18214,0.20054 0.14811,0.52738 -0.0775,0.73398 l -9.5685,8.76316 c -0.22557,0.20659 -0.5768,0.18785 -0.78614,-0.0432 z m -10.1673,-13.10259 c -0.17191,-0.25976 -0.10315,-0.60449 0.15271,-0.77195 l 10.8533,-7.10366 c 0.25586,-0.16747 0.58167,-0.11883 0.73177,0.10816 0.15011,0.227 0.0674,0.5459 -0.18679,0.71594 l -10.78074,7.21269 c -0.25414,0.17004 -0.59833,0.0986 -0.77025,-0.16118 z m -8.1048,-14.4649 c -0.13191,-0.28221 -0.0132,-0.61317 0.26455,-0.74133 l 11.78295,-5.43613 c 0.27778,-0.12816 0.59328,-0.0318 0.70877,0.21542 0.11549,0.24722 -0.013,0.55109 -0.28952,0.68199 l -11.72831,5.55259 c -0.27649,0.1309 -0.60653,0.01 -0.73844,-0.27254 z m -5.90464,-15.49482 c -0.0893,-0.29842 0.0764,-0.60852 0.36981,-0.69478 l 12.44795,-3.65898 c 0.29346,-0.0863 0.59155,0.0549 0.66984,0.31609 0.0783,0.26119 -0.0931,0.54292 -0.38565,0.6321 l -12.41125,3.78287 c -0.29258,0.0892 -0.60138,-0.0789 -0.6907,-0.3773 z m -3.56678,-16.19235 c -0.0442,-0.3084 0.16557,-0.59052 0.46846,-0.6323 l 12.8483,-1.77222 c 0.3029,-0.0418 0.57648,0.14124 0.61498,0.41016 0.0385,0.26894 -0.17272,0.52142 -0.47518,0.5663 l -12.82952,1.90353 c -0.30245,0.0449 -0.5829,-0.16707 -0.62704,-0.47547 z m -1.09051,-16.55717 c 0.004,-0.31196 0.25461,-0.55884 0.56053,-0.55359 l 12.9769,0.22286 c 0.30593,0.005 0.5487,0.22736 0.54598,0.49796 -0.003,0.27061 -0.24994,0.48682 -0.55595,0.48481 l -12.98045,-0.0852 c -0.306,-0.002 -0.55079,-0.25482 -0.54701,-0.5668 z m 1.47504,-16.52355 c 0.0512,-0.30728 0.33636,-0.51277 0.63771,-0.46102 l 12.78318,2.19522 c 0.30136,0.0518 0.50674,0.30913 0.46205,0.57728 -0.0447,0.26816 -0.32245,0.44502 -0.62432,0.39634 l -12.80467,-2.06503 c -0.30186,-0.0487 -0.5051,-0.33549 -0.45395,-0.64279 z m 3.92972,-16.10806 c 0.0959,-0.29637 0.40841,-0.45752 0.69896,-0.36186 l 12.32481,4.05795 c 0.29056,0.0957 0.4556,0.38122 0.37152,0.64069 -0.0841,0.25947 -0.38528,0.39403 -0.67676,0.30126 l -12.36424,-3.93519 c -0.29147,-0.0928 -0.45023,-0.40647 -0.35429,-0.70285 z m 6.24672,-15.36019 c 0.13813,-0.27921 0.47078,-0.39309 0.74428,-0.2561 l 11.6018,5.81107 c 0.27351,0.137 0.39528,0.44361 0.27438,0.68815 -0.12089,0.24456 -0.43841,0.33388 -0.71327,0.19961 l -11.65916,-5.69574 c -0.27485,-0.13427 -0.38617,-0.46777 -0.24803,-0.74699 z m 8.42603,-14.27993 c 0.17775,-0.25581 0.52346,-0.31948 0.77368,-0.14374 l 10.61414,7.45457 c 0.25023,0.17574 0.32578,0.49631 0.17066,0.71969 -0.15512,0.22339 -0.48187,0.26454 -0.73387,0.0913 L 489.001,650.944 c -0.25199,-0.17319 -0.31294,-0.51937 -0.13519,-0.7752 z m 10.46768,-12.86728 c 0.21477,-0.22618 0.56645,-0.23668 0.78715,-0.0248 l 9.36182,8.98845 c 0.22071,0.2119 0.2471,0.53933 0.0603,0.73531 -0.18676,0.19599 -0.51563,0.18601 -0.73853,-0.0235 l -9.45504,-8.88797 c -0.2229,-0.20952 -0.23053,-0.56129 -0.0157,-0.78748 z m 12.33004,-11.10655 c 0.2468,-0.19016 0.5956,-0.14636 0.78098,0.0968 l 7.8637,10.31416 c 0.18538,0.24316 0.16065,0.57138 -0.0544,0.73715 -0.2151,0.16577 -0.5387,0.106 -0.72657,-0.13524 l -7.96916,-10.23301 c -0.18787,-0.24123 -0.14131,-0.58968 0.10549,-0.77985 z m 13.85373,-9.11007 c 0.27223,-0.1514 0.61068,-0.0563 0.75799,0.21179 l 6.24868,11.3706 c 0.14731,0.26806 0.0734,0.58938 -0.16486,0.72178 -0.23831,0.13239 -0.55027,0.0254 -0.70024,-0.24113 l -6.36159,-11.30738 c -0.14996,-0.26656 -0.0522,-0.60426 0.22002,-0.75566 z m 15.04289,-6.97587 c 0.29143,-0.11004 0.61241,0.0335 0.71906,0.32021 l 4.52406,12.16238 c 0.10665,0.28673 -0.0134,0.59405 -0.26869,0.69048 -0.25528,0.0964 -0.5485,-0.0548 -0.65799,-0.34042 l -4.64438,-12.11709 c -0.10949,-0.28565 0.0365,-0.60551 0.32794,-0.71556 z m 15.89965,-4.70397 c 0.3044,-0.0661 0.60081,0.12288 0.66422,0.42202 l 2.6898,12.68952 c 0.0634,0.29916 -0.0999,0.58537 -0.36591,0.64326 -0.26601,0.0579 -0.53339,-0.1346 -0.59981,-0.43311 l -2.81756,-12.66217 c -0.0664,-0.29849 0.12486,-0.59341 0.42926,-0.65952 z m 16.42404,-2.2944 c 0.31112,-0.0196 0.57586,0.21191 0.59345,0.51724 l 0.74593,12.95201 c 0.0176,0.30534 -0.18607,0.56335 -0.45655,0.5801 -0.2705,0.0168 -0.50493,-0.21408 -0.52571,-0.5192 l -0.88111,-12.94259 c -0.0208,-0.30511 0.21286,-0.56797 0.52399,-0.58756 z m 16.59542,0.24918 c 0.3103,0.0288 0.53599,0.2984 0.50619,0.60272 l -1.26398,12.90901 c -0.0298,0.30433 -0.27117,0.52799 -0.54127,0.50308 -0.27012,-0.0249 -0.46619,-0.28892 -0.43955,-0.59355 l 1.13024,-12.92191 c 0.0266,-0.30462 0.29805,-0.52813 0.60837,-0.49935 z m 16.34859,2.77092 c 0.30237,0.0748 0.48513,0.3751 0.41019,0.6716 l -3.17924,12.57743 c -0.075,0.29651 -0.34789,0.48125 -0.6123,0.41571 -0.26442,-0.0655 -0.41961,-0.35639 -0.34764,-0.65362 l 3.05292,-12.60826 c 0.072,-0.29723 0.37368,-0.47767 0.67607,-0.40286 z m 15.75995,5.15388 c 0.28821,0.11824 0.4251,0.44211 0.30759,0.72455 l -4.98487,11.98121 c -0.11752,0.28245 -0.41493,0.42532 -0.6674,0.32173 -0.25248,-0.10358 -0.36385,-0.41416 -0.24913,-0.69777 l 4.86598,-12.02996 c 0.11471,-0.2836 0.43961,-0.41801 0.72783,-0.29976 z m 14.83893,7.39915 c 0.2678,0.15909 0.35589,0.49943 0.19839,0.76158 l -6.68088,11.12033 c -0.1575,0.26216 -0.47228,0.36022 -0.70657,0.22118 -0.23431,-0.13905 -0.29891,-0.46226 -0.14403,-0.72599 l 6.56942,-11.18702 c 0.15487,-0.26373 0.49586,-0.34917 0.76367,-0.19008 z m 13.58552,9.50675 c 0.24116,0.19736 0.2775,0.54707 0.0826,0.78269 l -8.26728,9.9948 c -0.1949,0.23563 -0.51993,0.28594 -0.72982,0.11401 -0.20989,-0.17192 -0.22477,-0.50066 -0.0323,-0.73828 l 8.16325,-10.07943 c 0.19244,-0.23761 0.54242,-0.27115 0.78358,-0.0738 z m 11.99341,11.47255 c 0.20781,0.23239 0.18966,0.58364 -0.0394,0.78635 l -9.71429,8.59857 c -0.22901,0.20271 -0.55803,0.20256 -0.73887,8e-4 -0.18085,-0.20177 -0.14472,-0.52842 0.0822,-0.73354 l 9.62454,-8.70048 c 0.22689,-0.20511 0.57796,-0.1841 0.78579,0.0483 z m 10.08374,13.16627 c 0.17029,0.26082 0.0994,0.60511 -0.15751,0.77098 l -10.89751,7.03608 c -0.25691,0.16587 -0.58243,0.11518 -0.73113,-0.11278 -0.14871,-0.22797 -0.064,-0.54639 0.19122,-0.71484 l 10.82569,-7.14542 c 0.25521,-0.16845 0.59895,-0.0948 0.76924,0.16598 z m 8.0155,14.51466 c 0.13018,0.28302 0.009,0.61325 -0.26909,0.7397 l -11.81609,5.36396 c -0.27856,0.12646 -0.59347,0.0281 -0.70746,-0.21977 -0.11398,-0.24792 0.0164,-0.55101 0.29368,-0.68022 l 11.7622,-5.48073 c 0.27728,-0.1292 0.60658,-0.006 0.73676,0.27706 z m 5.80956,15.53068 c 0.0875,0.29896 -0.0801,0.60803 -0.37407,0.69248 l -12.47001,3.58222 c -0.29398,0.0844 -0.59119,-0.0585 -0.66786,-0.32016 -0.0767,-0.26164 0.0964,-0.54229 0.38953,-0.62967 l 12.43405,-3.70642 c 0.29312,-0.0874 0.60088,0.0826 0.68836,0.38155 z m 3.46595,16.21429 c 0.0422,0.30868 -0.1693,0.58948 -0.47245,0.62934 l -12.85928,1.69087 c -0.30316,0.0399 -0.57556,-0.14484 -0.61235,-0.41395 -0.0368,-0.26913 0.17606,-0.52023 0.47879,-0.5632 l 12.84126,-1.82249 c 0.30272,-0.043 0.58183,0.17074 0.62403,0.47943 z"
           id="path3847"
           inkscape:path-effect="#path-effect3850"
           inkscape:original-d="m 688.33905,713.6994 c 0,60.06515 -48.69242,108.75757 -108.75757,108.75757 -60.06514,0 -108.75757,-48.69242 -108.75757,-108.75757 0,-60.06514 48.69243,-108.75757 108.75757,-108.75757 60.06515,0 108.75757,48.69243 108.75757,108.75757 z" />
      </g>
      <g
         transform="translate(-225.53329,-0.72365982)"
         id="g3894">
        <path
           sodipodi:type="arc"
           style="fill:#ffffff;fill-opacity:0.640625;stroke:#000000;stroke-width:8;stroke-miterlimit:4;stroke-opacity:1;stroke-dasharray:none"
           id="path3059"
           sodipodi:cx="579.58148"
           sodipodi:cy="713.6994"
           sodipodi:rx="108.75757"
           sodipodi:ry="108.75757"
           d="m 673.7683,768.07819 a 108.75757,108.75757 0 1 1 0,-108.75758 l -94.18682,54.37879 z"
           transform="matrix(0,-1,1,0,-6.7842818,1306.3765)"
           sodipodi:start="0.52359878"
           sodipodi:end="5.7595865" />
        <path
           style="fill:none;stroke:#000000;stroke-width:1.91483605;stroke-linecap:butt;stroke-linejoin:miter;stroke-miterlimit:4;stroke-opacity:1;stroke-dasharray:none"
           d="m 706.91512,722.51927 0,-96.71894"
           id="path3892"
           inkscape:connector-curvature="0" />
      </g>
    </g>
    <path
       inkscape:original-d="m -621.97939,688.5504 c 0,110.55892 -89.62572,200.18467 -200.18467,200.18467 -110.55893,0 -200.18464,-89.62575 -200.18464,-200.18467 0,-110.55895 89.62571,-200.18468 200.18464,-200.18468 110.55895,0 200.18467,89.62573 200.18467,200.18468 z"
       inkscape:path-effect="#path-effect3976"
       id="path3972"
       d="m -577.69659,688.6473 c -4e-4,1.0315 -0.007,2.06284 -0.0207,3.09394 -7e-4,0.0536 -0.11708,0.0953 -0.2609,0.0934 l -22.24438,-0.29931 c -0.14383,-0.002 -0.25909,-0.0426 -0.25846,-0.0913 0.0122,-0.93511 0.0185,-1.87036 0.0188,-2.80569 2e-5,-0.0486 0.11582,-0.0879 0.25965,-0.0879 l 22.24635,0 c 0.14384,0 0.25965,0.0432 0.25963,0.0969 z m -46.76199,143.70637 c -0.60609,0.83248 -1.21742,1.66115 -1.83394,2.48595 -0.0321,0.0429 -0.15066,0.008 -0.26584,-0.0781 l -17.81327,-13.3267 c -0.11518,-0.0862 -0.18447,-0.18684 -0.15532,-0.22584 0.55949,-0.74849 1.11428,-1.50049 1.66432,-2.25595 0.0286,-0.0393 0.1453,-0.003 0.26161,0.0818 l 17.9894,13.08786 c 0.11631,0.0846 0.18461,0.1876 0.15304,0.23097 z m -122.30645,88.78494 c -0.98252,0.31761 -1.96685,0.62894 -2.95294,0.93396 -0.0512,0.0159 -0.1268,-0.082 -0.16923,-0.21941 l -6.56234,-21.25249 c -0.0424,-0.13742 -0.0392,-0.25959 0.007,-0.274 0.89382,-0.27643 1.78597,-0.55857 2.67638,-0.8464 0.0463,-0.015 0.1193,0.0831 0.16359,0.21992 l 6.8495,21.16158 c 0.0443,0.13683 0.0388,0.26029 -0.0123,0.27684 z M -897.80582,921.06 c -0.98221,-0.31865 -1.96261,-0.6436 -2.94111,-0.97483 -0.0509,-0.0172 -0.0548,-0.14079 -0.009,-0.27698 l 7.14144,-21.06488 c 0.0462,-0.1362 0.12045,-0.23328 0.16663,-0.21764 0.88658,0.30014 1.77497,0.5946 2.6651,0.88337 0.0463,0.015 0.048,0.13725 0.004,0.27406 l -6.85484,21.15985 c -0.0443,0.13682 -0.12111,0.23365 -0.17228,0.21705 z m -122.21338,-88.91213 c -0.6052,-0.8331 -1.2052,-1.67001 -1.7999,-2.51068 -0.031,-0.0437 0.039,-0.14583 0.1562,-0.22887 l 18.1654,-12.84216 c 0.1175,-0.083 0.2346,-0.11795 0.2627,-0.0782 0.5397,0.76287 1.0843,1.52235 1.6335,2.27837 0.029,0.0393 -0.042,0.13912 -0.1584,0.22371 l -17.9926,13.0834 c -0.1163,0.0846 -0.2353,0.11785 -0.2669,0.0744 z m -46.6123,-143.75546 c 7e-4,-1.0315 0.01,-2.06282 0.022,-3.09392 7e-4,-0.0536 0.1171,-0.0953 0.261,-0.0933 l 22.2443,0.30488 c 0.1438,0.002 0.259,0.0427 0.2584,0.0914 -0.012,0.9351 -0.019,1.87035 -0.02,2.80568 -10e-5,0.0486 -0.1159,0.0878 -0.2597,0.0878 l -22.2464,-0.006 c -0.1438,-3e-5 -0.2596,-0.0432 -0.2596,-0.097 z m 46.7979,-143.69458 c 0.6063,-0.83233 1.2178,-1.66085 1.8345,-2.4855 0.032,-0.0429 0.1507,-0.008 0.2659,0.0781 l 17.80992,13.33111 c 0.11516,0.0862 0.18443,0.18689 0.15527,0.22588 -0.55969,0.74835 -1.11469,1.50022 -1.66489,2.25553 -0.029,0.0393 -0.1453,0.003 -0.2616,-0.0818 l -17.9861,-13.09231 c -0.1163,-0.0847 -0.1846,-0.18765 -0.153,-0.23101 z m 122.32872,-88.75445 c 0.98259,-0.31737 1.96699,-0.62844 2.95314,-0.93322 0.0513,-0.0158 0.12678,0.082 0.16918,0.21945 l 6.55699,21.25415 c 0.0424,0.13742 0.0391,0.2596 -0.007,0.27399 -0.89388,0.27621 -1.7861,0.55812 -2.67658,0.84572 -0.0463,0.0149 -0.11928,-0.0831 -0.16353,-0.21996 l -6.84417,-21.1633 c -0.0443,-0.13684 -0.0388,-0.2603 0.0124,-0.27683 z m 151.04076,0.11629 c 0.98214,0.3189 1.96246,0.64409 2.94089,0.97557 0.0508,0.0172 0.0547,0.1408 0.009,0.27699 l -7.14676,21.06308 c -0.0462,0.13618 -0.1205,0.23324 -0.16669,0.21759 -0.88651,-0.30037 -1.77483,-0.59505 -2.66489,-0.88404 -0.0463,-0.015 -0.0479,-0.13727 -0.004,-0.27407 l 6.86016,-21.15812 c 0.0444,-0.1368 0.12117,-0.23361 0.17234,-0.217 z m 122.19103,88.94258 c 0.60502,0.83325 1.2048,1.67031 1.7993,2.51112 0.0309,0.0437 -0.0387,0.14583 -0.15621,0.22883 l -18.16865,12.83767 c -0.11748,0.083 -0.23461,0.11789 -0.26272,0.0781 -0.53953,-0.76301 -1.08385,-1.52261 -1.63292,-2.27877 -0.0285,-0.0393 0.0421,-0.13911 0.15844,-0.22368 l 17.99588,-13.07894 c 0.11635,-0.0846 0.23537,-0.11778 0.26688,-0.0744 z"
       style="fill:none;stroke:#000000;stroke-width:8;stroke-miterlimit:4;stroke-opacity:1"
       inkscape:connector-curvature="0" />
    <g
       id="g3981"
       inkscape:export-filename="/home/shrapnel/code/sequence-initiated/web/images/rotary_five_notches.png"
       inkscape:export-xdpi="41.919998"
       inkscape:export-ydpi="41.919998">
      <rect
         ry="105.37836"
         y="521.76556"
         x="-490.29877"
         height="536.29401"
         width="536.29401"
         id="rect3979"
         style="fill:none;fill-opacity:0.64062500000000000;stroke:none" />
      <path
         inkscape:connector-curvature="0"
         id="path3934"
         d="m 39.900753,726.93073 c 0.743946,2.21332 1.459498,4.43497 2.146834,6.66434 0.03535,0.1161 -0.133861,0.27042 -0.38023,0.34612 L 3.5645579,745.65015 c -0.246441,0.0755 -0.4691296,0.0571 -0.499681,-0.042 -0.5859976,-1.90116 -1.1961226,-3.79535 -1.8301965,-5.68205 -0.032947,-0.098 0.1369821,-0.24349 0.3812036,-0.32578 L 39.389926,726.8714 c 0.244238,-0.0823 0.472068,-0.056 0.510844,0.0593 z m -97.436774,310.41137 c -1.879795,1.3921 -3.77599,2.7595 -5.688089,4.1021 -0.09939,0.07 -0.298696,-0.043 -0.446574,-0.255 l -22.86763,-32.6415 c -0.14788,-0.211 -0.198569,-0.4288 -0.113699,-0.4883 1.629543,-1.1439 3.245084,-2.3088 4.846165,-3.4944 0.08319,-0.062 0.273969,0.055 0.427473,0.2621 l 23.741854,32.0106 c 0.153504,0.2069 0.19849,0.432 0.100589,0.5044 z m -325.167429,3.2348 c -1.89837,-1.3489 -3.77975,-2.7215 -5.64371,-4.1177 -0.0969,-0.073 -0.0506,-0.2973 0.10409,-0.5035 l 23.91767,-31.888 c 0.15463,-0.2063 0.34565,-0.3223 0.42854,-0.2602 1.59077,1.1915 3.19642,2.3629 4.81658,3.5139 0.0842,0.06 0.0322,0.2773 -0.11688,0.4875 l -23.05876,32.5151 c -0.1491,0.2102 -0.34862,0.3232 -0.4475,0.253 z m -103.6474,-308.38685 c 0.6984,-2.22152 1.42477,-4.43427 2.17898,-6.63774 0.0391,-0.11453 0.26721,-0.13958 0.511,-0.0559 l 37.70343,12.93839 c 0.24378,0.0837 0.41301,0.22965 0.37949,0.32762 -0.64363,1.8804 -1.26355,3.76878 -1.85964,5.66465 -0.031,0.0986 -0.25393,0.11602 -0.49984,0.0389 l -38.03502,-11.92799 c -0.24593,-0.0771 -0.41478,-0.2322 -0.3784,-0.34794 z M -225.23407,538.3772 c 2.33915,-0.0259 4.68011,-0.0222 7.02239,0.0111 0.12176,0.002 0.21678,0.21068 0.21284,0.46834 l -0.60937,39.84986 c -0.004,0.25766 -0.0905,0.46383 -0.1944,0.46233 -1.99373,-0.0286 -3.98697,-0.0318 -5.97919,-0.01 -0.10356,0.002 -0.18963,-0.20529 -0.19269,-0.46297 l -0.47387,-39.8513 c -0.003,-0.25766 0.0924,-0.46629 0.2142,-0.46764 z"
         style="fill:none;stroke:#000000;stroke-width:7.886271;stroke-miterlimit:4;stroke-opacity:1" />
    </g>
    <g
       id="g3167"
       inkscape:export-filename="/home/shrapnel/code/sequence-initiated/web/images/pushbutton_medium_wide.png"
       inkscape:export-xdpi="41.919998"
       inkscape:export-ydpi="41.919998">
      <g
         transform="translate(1.5625,309.375)"
         id="g3077"
         inkscape:export-filename="/home/shrapnel/code/sequence-initiated/web/images/pushbutton_large.png"
         inkscape:export-xdpi="41.919998"
         inkscape:export-ydpi="41.919998">
        <rect
           y="264.86404"
           x="277.14261"
           height="322.02701"
           width="322.02701"
           id="rect3079"
           style="fill:none;stroke:none" />
        <g
           transform="matrix(0.89441942,0,0,0.8941554,29.260874,22.019118)"
           id="g3081">
          <path
             style="fill:#a50000;fill-opacity:1;stroke:none"
             d="m 288.32328,316.3332 285.21758,0 0,155.40839 -285.21758,0 z"
             id="path3083"
             inkscape:connector-curvature="0"
             sodipodi:nodetypes="ccccc" />
          <path
             style="fill:#650000;fill-opacity:1;stroke:none"
             d="m 288.32304,471.58184 285.17268,0 25.25382,25.71428 -285.17268,0 z"
             id="path3085"
             inkscape:connector-curvature="0"
             sodipodi:nodetypes="ccccc" />
          <path
             sodipodi:nodetypes="ccccc"
             inkscape:connector-curvature="0"
             id="path3087"
             d="m 599.16938,342.42933 -0.37881,155.02928 -25.33547,-25.72415 0,-155.40809 z"
             style="fill:#4d0000;fill-opacity:1;stroke:none" />
        </g>
      </g>
      <g
         transform="translate(1.5625,309.375)"
         id="g3089"
         inkscape:export-filename="/home/shrapnel/code/sequence-initiated/web/images/pushbutton_large.png"
         inkscape:export-xdpi="41.919998"
         inkscape:export-ydpi="41.919998">
        <rect
           style="fill:none;stroke:none"
           id="rect3091"
           width="322.02701"
           height="322.02701"
           x="599.16962"
           y="264.86404" />
        <g
           id="g3093"
           transform="matrix(0.89441942,0,0,0.8941554,362.22855,32.935289)">
          <path
             style="fill:#a50000;fill-opacity:1;stroke:none"
             d="m 288.32273,316.44486 285.21758,0 0,155.40839 -285.21758,0 z"
             id="path3095"
             inkscape:connector-curvature="0"
             sodipodi:nodetypes="ccccc" />
          <path
             sodipodi:nodetypes="ccccc"
             inkscape:connector-curvature="0"
             id="path3097"
             d="m 288.32304,471.58184 285.17268,0 13.14997,13.55643 -285.17268,0 z"
             style="fill:#650000;fill-opacity:1;stroke:none" />
          <path
             style="fill:#4d0000;fill-opacity:1;stroke:none"
             d="m 586.93725,330.22097 -0.37881,155.02928 -13.10334,-13.5158 0,-155.40809 z"
             id="path3099"
             inkscape:connector-curvature="0"
             sodipodi:nodetypes="ccccc" />
        </g>
      </g>
    </g>
  </g>
</svg>
